<svg xmlns="http://www.w3.org/2000/svg" xmlns:xlink="http://www.w3.org/1999/xlink" xmlns:sketch="http://www.bohemiancoding.com/sketch/ns" viewBox="0 0 35 22" version="1.1" x="0px" y="0px"><title>glyph_pot</title><description>Created with Sketch (http://www.bohemiancoding.com/sketch)</description><g stroke="none" stroke-width="1" fill="none" fill-rule="evenodd" sketch:type="MSPage"><g sketch:type="MSLayerGroup" transform="translate(-81.000000, -57.000000)" fill="#000000"><path d="M90.8176259,62.2007491 C89.6411443,63.1923746 88.7210453,64.4098527 88.1512799,65.7720438 L88.1512799,65.7720438 C87.6962421,65.7299024 87.1899486,65.5489485 86.753683,65.0685268 C85.8263466,64.0473309 85.8334822,63.2760046 85.2120537,61.4835937 C84.8004229,60.2963105 83.919035,60.023541 83.919035,60.023541 C83.919035,60.023541 82.9886162,60.0669643 82.2429688,60.399442 C81.4973214,60.7319196 81.1981027,61.6712053 81.1981027,61.6712053 C81.1981027,61.6712053 82.4254465,61.3422991 82.880692,62.5256696 C83.1936846,63.3392664 83.3700271,64.2256728 83.4937501,65.5657368 C83.5661872,66.3503158 83.6896754,69.5648572 84.6421876,71.0562501 C85.4322705,72.2933198 86.7126166,73.3719914 88.5,73.7417903 C88.6664675,73.7762314 88.8414526,73.8027364 89.0207826,73.8226767 C90.0892626,75.3857381 91.6612954,76.6615064 93.5441244,77.48351 C93.8702734,78.3396081 95.9647897,79 98.5,79 C101.03521,79 103.129727,78.3396081 103.455876,77.48351 L103.455876,77.48351 C105.090669,76.7697937 106.491158,75.713992 107.53117,74.4250723 L107.53117,74.4250723 C107.57381,74.4183247 107.618201,74.4110422 107.664415,74.4031941 C108.947014,74.1853808 111.360658,72.9614842 112.427604,72.0872395 C113.10547,71.5318034 114.476536,70.0605687 114.94388,68.9158852 C115.295155,68.055494 115.583399,66.8313535 115.457812,65.7255207 C115.332226,64.6196879 114.597526,62.068099 111.778125,61.8842448 C109.96374,61.7659284 108.421942,62.8293071 107.553298,63.6024545 C107.125457,63.0682197 106.63585,62.5736963 106.093394,62.1265841 C105.926328,63.6118138 102.604625,64.5085183 98.4499878,64.5085183 C94.3649684,64.5085183 91.0852026,63.6416135 90.8176259,62.2007491 Z M91.3140291,61.807105 C92.9868105,60.5595183 95.0993985,59.739811 97.4237977,59.5448884 C97.1614991,59.2747787 97,58.9062494 97,58.5 C97,57.6715728 97.6715728,57 98.5,57 C99.3284272,57 100,57.6715728 100,58.5 C100,58.9062494 99.8385009,59.2747787 99.5762023,59.5448884 L99.5762023,59.5448884 C101.831306,59.7339999 103.887039,60.5111987 105.535196,61.6966705 C105.592247,61.7982856 105.621863,61.9024375 105.621863,62.0085183 C105.621863,63.1130879 102.410905,64.0085183 98.4499878,64.0085183 C94.4890704,64.0085183 91.2781128,63.1130879 91.2781128,62.0085183 C91.2781128,61.940535 91.2902762,61.8733439 91.3140291,61.807105 Z M108.73477,72.4882977 C109.228651,71.4083732 109.5,70.2315539 109.5,69 C109.5,67.6097054 109.154192,66.2891649 108.532808,65.0990327 C108.973385,64.3216407 109.986482,63.1282116 111.977083,63.3907552 C113.753125,63.625 114.410482,65.7078081 114.171615,67.1343748 C113.932748,68.5609415 112.641584,70.1695311 111.409114,71.0704424 C110.607995,71.6560449 109.587906,72.1403475 108.73477,72.4882977 L108.73477,72.4882977 Z" sketch:type="MSShapeGroup"></path></g></g></svg>